<svg width="400" height="400" viewBox="0 0 400 400" fill="none" xmlns="http://www.w3.org/2000/svg">
  <path d="M215.5 182.5C215.5 196.031 204.531 207 191 207C177.469 207 166.5 196.031 166.5 182.5C166.5 168.969 177.469 158 191 158C204.531 158 215.5 168.969 215.5 182.5Z" fill="#26A69A"/>
  <path d="M269 127H290V238H269V127Z" fill="#0F3048"/>
  <path d="M216 127H237V238H216V127Z" fill="#0F3048"/>
  <path d="M323 127C336.807 127 348 138.193 348 152V213C348 226.807 336.807 238 323 238H301V127H323Z" fill="#0F3048"/>
  <path d="M145 127H166V238H145V127Z" fill="#0F3048"/>
  <path d="M191 127C204.807 127 216 138.193 216 152V152C216 165.807 204.807 177 191 177H166V127H191Z" fill="#0F3048"/>
  <path d="M191 207C204.807 207 216 195.807 216 182V182C216 168.193 204.807 157 191 157H166V207H191Z" fill="#0F3048"/>
  <path d="M92 127H113V238H92V127Z" fill="#0F3048"/>
  <path d="M92 127H113V148H92V127Z" fill="#0F3048"/>
  <path d="M92 127V148H71V127H92Z" fill="#0F3048"/>
  <path d="M191 127C177.193 127 166 138.193 166 152V152C166 165.807 177.193 177 191 177" stroke="#0F3048" stroke-width="10"/>
  <path d="M191 207C177.193 207 166 195.807 166 182V182C166 168.193 177.193 157 191 157" stroke="#0F3048" stroke-width="10"/>
  <path d="M191 157V177" stroke="#0F3048" stroke-width="10"/>
  <path d="M191 127V157" stroke="#0F3048" stroke-width="10"/>
  <path d="M191 177V207" stroke="#0F3048" stroke-width="10"/>
  <path d="M191 207V238" stroke="#0F3048" stroke-width="10"/>
  <path d="M191 127L216 152" stroke="#0F3048" stroke-width="10" stroke-linecap="round"/>
</svg>
